<svg width="80" height="76" viewBox="0 0 80 76" fill="none" xmlns="http://www.w3.org/2000/svg">
<path d="M16.418 16.058C16.418 8.482 16.418 4.695 18.786 2.348C21.155 0 24.976 0 32.566 0C40.21 0 44.033 0 46.4 2.347C48.767 4.694 48.769 8.482 48.769 16.058C48.769 23.634 48.769 27.421 46.4 29.768C44.032 32.116 40.21 32.116 32.567 32.116C24.923 32.116 21.101 32.116 18.733 29.769C16.418 27.421 16.418 23.634 16.418 16.058Z" fill="#BDDDF9"></path>
<path d="M31.49 9.44307C31.383 11.9501 31.221 14.4581 31.168 16.9651C31.114 18.7791 30.898 20.9131 31.544 22.6731C31.76 23.2071 33.859 23.1001 33.644 22.4601C33.374 21.7131 33.374 20.9131 33.321 20.1131C33.267 18.9931 33.321 17.8721 33.321 16.7521C33.374 14.2981 33.59 11.8441 33.644 9.39007C33.697 8.85607 31.543 8.80307 31.49 9.44307Z" fill="#3C323E"></path>
<path d="M27.4 16.538C29.5 16.591 31.652 16.485 33.752 16.271C34.505 16.218 35.312 16.111 36.066 16.058C36.228 16.058 36.389 16.005 36.604 16.005C36.712 16.005 37.358 15.951 36.766 16.005H36.927C37.25 16.005 36.227 15.951 36.551 16.005H36.82C37.52 16.058 38.22 16.058 38.92 15.951C39.188 15.898 39.942 15.791 40.157 15.524C40.695 14.884 38.435 14.671 38.273 14.671C36.497 14.511 34.667 14.724 32.89 14.884C31.975 14.991 31.06 15.044 30.145 15.151C29.93 15.151 29.661 15.204 29.445 15.204H29.068H29.23H27.507C26.915 15.204 26.216 15.258 25.623 15.418C25.462 15.471 24.816 15.631 24.816 15.898C24.708 16.538 27.076 16.538 27.4 16.538ZM32.245 33.236C32.245 34.143 32.191 35.103 32.245 36.01C32.298 36.917 32.46 37.824 32.46 38.731C32.46 39.104 33.267 39.211 33.536 39.158C33.806 39.158 34.613 39.104 34.613 38.731C34.613 37.824 34.452 36.917 34.398 36.011C34.344 35.103 34.398 34.143 34.398 33.236C34.398 32.863 33.59 32.756 33.321 32.809C33.052 32.809 32.245 32.863 32.245 33.236ZM2.206 37.237C2.206 35.477 2.153 33.663 2.206 31.902C2.206 31.476 1.399 31.422 1.13 31.422C0.86 31.422 0.053 31.476 0.053 31.902C-0.001 33.663 0.053 35.477 0.053 37.237C0.053 37.664 0.861 37.717 1.13 37.717C1.399 37.717 2.206 37.664 2.206 37.237ZM10.765 51.055C8.342 50.895 5.92 50.575 4.252 48.708C2.529 46.788 2.314 44.173 2.368 41.719C2.368 41.292 0.214 41.292 0.214 41.719C0.161 44.333 0.484 47.107 2.368 49.081C4.359 51.108 7.481 51.428 10.173 51.589C10.442 51.589 11.303 51.695 11.518 51.375C11.734 51.108 10.872 51.055 10.765 51.055ZM23.522 50.788C22.445 50.842 21.369 50.948 20.292 51.002C19.7 51.055 19.162 51.055 18.516 51.055H16.309C16.094 51.055 15.232 51.055 15.232 51.428C15.232 51.748 16.148 51.802 16.309 51.802C17.816 51.802 19.269 51.802 20.777 51.749C21.907 51.695 22.984 51.589 24.114 51.535C24.329 51.535 25.029 51.428 24.868 51.108C24.652 50.682 23.791 50.788 23.522 50.788ZM32.35 42.146C32.242 43.906 32.242 45.88 31.273 47.48C30.52 48.707 29.282 49.774 27.883 50.308C27.505 50.468 27.505 50.735 27.883 50.895C28.367 51.055 28.959 51.055 29.389 50.895C30.359 50.521 31.112 50.041 31.919 49.348C32.458 48.868 32.942 48.388 33.319 47.8C34.342 46.147 34.395 44.066 34.503 42.146C34.503 41.612 32.403 41.559 32.35 42.146ZM10.335 19.686H11.088C11.465 19.632 11.896 19.739 12.327 19.792C13.295 19.899 14.264 19.952 15.287 19.952C15.557 19.952 15.825 19.952 16.041 19.846C16.148 19.792 16.364 19.739 16.364 19.579C16.364 19.206 15.502 19.206 15.287 19.206H14.318C14.426 19.206 14.48 19.206 14.318 19.206H13.941C13.511 19.152 13.081 19.152 12.649 19.099C11.734 19.046 10.766 18.992 9.85 19.046C9.689 19.046 8.881 19.206 9.097 19.526C9.204 19.792 9.958 19.739 10.335 19.686ZM2.207 27.528C2.315 25.981 2.637 24.381 3.499 23.047C4.36 21.713 5.652 20.86 7.159 20.433C7.482 20.326 7.913 20.006 7.536 19.686C7.159 19.366 6.513 19.366 6.083 19.473C4.199 20.006 2.638 21.02 1.507 22.567C0.484 24.007 0.161 25.767 0 27.475C0 28.275 2.153 28.328 2.207 27.528ZM40.264 35.85C39.457 37.718 39.78 40.119 40.049 42.093C40.533 45.187 41.61 48.121 43.225 50.842C46.562 56.444 51.084 61.192 55.39 66.046C56.305 67.06 57.22 68.126 58.135 69.141C58.62 69.674 60.719 69.301 60.019 68.554C57.22 65.566 54.583 62.472 51.891 59.378C47.801 54.683 43.709 49.508 42.417 43.266C42.0968 41.8482 41.9345 40.3994 41.933 38.946C41.933 38.038 41.933 37.025 42.31 36.171C42.687 35.371 40.587 35.157 40.264 35.851" fill="#3C323E"></path>
<path d="M45.917 42.039C44.679 39.104 43.549 36.17 42.418 33.183C41.449 30.622 40.481 28.061 39.888 25.393C39.619 24.22 39.404 22.993 39.458 21.819C39.458 21.392 39.512 20.966 39.727 20.592L39.997 20.326C39.997 20.379 39.457 20.272 39.512 20.379C39.565 20.486 39.888 20.592 39.996 20.699C40.158 20.859 40.319 20.966 40.48 21.126C40.911 21.606 41.288 22.139 41.61 22.673C42.2693 23.7661 42.8453 24.9073 43.333 26.087C43.926 27.581 44.41 29.075 45.056 30.515C45.486 31.475 45.917 32.435 46.402 33.343C46.671 33.823 48.447 33.876 48.501 33.236C48.609 32.436 48.878 31.582 49.308 30.889C49.631 30.409 49.847 30.249 50.385 30.462C50.655 30.569 50.923 30.729 51.139 30.942C51.192 30.995 51.515 31.315 51.408 31.155C51.731 31.475 53.507 31.795 53.507 31.049C53.507 30.249 53.83 29.342 54.53 28.915C54.96 28.648 55.391 28.648 55.768 29.021C55.875 29.128 55.983 29.288 56.091 29.448C56.145 29.501 56.252 29.822 56.145 29.608C56.36 30.248 58.082 30.248 58.298 29.608C58.244 29.875 58.298 29.555 58.351 29.501C58.405 29.395 58.459 29.288 58.513 29.128C58.675 28.755 58.943 28.381 59.267 28.114C59.374 28.008 59.536 27.901 59.697 27.848C59.482 27.901 59.643 27.848 59.805 27.954C60.182 28.274 60.505 28.488 60.774 28.914C62.443 31.209 63.034 34.41 63.573 37.13C64.111 39.905 64.326 42.785 64.919 45.56C65.188 46.787 65.511 48.014 66.103 49.08C66.641 50.148 67.503 50.841 68.363 51.695C70.094 53.3043 71.7469 54.9956 73.316 56.763C73.639 57.083 74.231 57.136 74.662 57.083C74.823 57.083 75.738 56.87 75.415 56.496C73.908 54.789 72.347 53.136 70.678 51.588C69.709 50.681 68.74 49.934 68.148 48.708C67.556 47.427 67.179 45.986 66.91 44.599C66.318 41.452 66.049 38.251 65.35 35.103C64.972 33.556 64.596 32.063 63.95 30.568C63.465 29.448 62.873 28.221 61.797 27.528C60.559 26.728 58.675 26.674 57.49 27.581C56.844 28.061 56.414 28.808 56.198 29.608H58.352C57.813 27.848 55.499 27.581 53.938 27.954C52.43 28.328 51.408 29.554 51.408 31.102C52.108 31.049 52.808 30.995 53.507 30.995C52.269 29.608 49.847 28.968 48.178 29.928C47.048 30.568 46.563 32.116 46.402 33.343C47.102 33.289 47.802 33.236 48.501 33.236C48.017 32.329 47.532 31.369 47.155 30.409C46.509 28.969 46.079 27.474 45.487 26.034C44.948 24.754 44.357 23.42 43.549 22.246C42.957 21.286 42.149 20.272 41.073 19.792C40.103 19.365 38.65 19.419 37.897 20.272C37.251 21.072 37.359 22.352 37.467 23.313C37.789 26.193 38.758 28.968 39.781 31.636C41.0777 35.2672 42.4776 38.8606 43.979 42.412C44.087 42.839 46.24 42.732 45.917 42.039Z" fill="#3C323E"></path>
<path d="M54.743 64.9791C52.967 67.0061 51.029 69.4601 50.275 72.0741C50.06 72.7141 49.845 73.8881 50.545 74.3681C51.136 74.7951 52.321 74.6351 52.967 74.4751C54.42 74.2081 55.82 73.2481 57.057 72.5011C58.995 71.2741 60.826 69.8871 62.656 68.5531C65.724 66.2061 68.846 63.8051 71.646 61.1381C73.852 59.0041 75.898 56.7101 77.674 54.2561C78.427 53.1891 79.181 52.0161 79.666 50.7881C79.935 50.0951 80.204 49.1341 79.773 48.4411C79.235 47.5341 77.782 47.5871 76.867 47.6941C75.737 47.8011 74.767 48.3881 73.852 48.9741C72.452 49.9341 71.161 51.1081 69.976 52.3351C69.815 52.5491 70.676 52.5491 70.73 52.5491C71 52.5491 71.807 52.6551 72.076 52.3891C72.9248 51.4834 73.8425 50.6448 74.821 49.8811C75.575 49.2941 76.328 48.7081 77.189 48.2811C77.459 48.1211 77.782 48.0671 78.105 47.9611C76.92 48.4941 76.975 47.6941 77.351 48.0671C77.512 48.1741 77.621 48.2811 77.728 48.4411C78.105 49.0811 77.835 49.9351 77.62 50.6281C77.243 51.6951 76.651 52.6551 76.005 53.6161C74.445 55.9631 72.506 58.0971 70.515 60.1241C68.039 62.6321 65.293 64.8191 62.495 66.9531C59.426 69.3531 56.25 71.9141 52.751 73.6751C52.482 73.8351 52.213 73.9421 51.891 74.0481C51.783 74.1021 51.621 74.1021 51.513 74.1551H51.46H51.675C51.46 74.1551 52.644 74.1551 52.59 74.2081C52.59 74.3151 52.644 74.1551 52.59 74.2081C52.536 74.0481 52.375 73.9421 52.32 73.7821C52.16 73.3551 52.213 72.8751 52.32 72.4481C52.59 71.1141 53.343 69.8341 54.097 68.7131C54.9043 67.4262 55.8228 66.2126 56.842 65.0861C57.004 64.8721 56.196 64.8721 56.089 64.8721C55.766 64.8721 54.959 64.7661 54.743 64.9791Z" fill="#3C323E"></path>
<path d="M78.053 48.2799C79.345 49.5609 75.361 55.4299 74.931 55.9099C74.501 56.3899 72.831 54.4699 72.131 53.5099C71.431 52.5489 70.947 52.1749 73.047 50.5749C75.038 48.9749 77.137 47.3729 78.053 48.2799ZM57.49 67.0059C58.082 67.6459 60.827 69.1399 59.105 70.3669C57.383 71.5939 53.075 74.4209 51.999 74.1009C50.923 73.7809 51.622 70.6869 52.914 68.8199C54.206 66.8999 55.714 64.9789 56.359 65.7259C57.005 66.4719 57.489 67.0059 57.489 67.0059" fill="#3C323E"></path>
</svg>